<?xml version="1.0" standalone="no"?>
<!DOCTYPE svg PUBLIC "-//W3C//DTD SVG 20010904//EN"
 "http://www.w3.org/TR/2001/REC-SVG-20010904/DTD/svg10.dtd">
<svg version="1.0" xmlns="http://www.w3.org/2000/svg"
 width="200.000000pt" height="200.000000pt" viewBox="0 0 200.000000 200.000000"
 preserveAspectRatio="xMidYMid meet">
<metadata>
Created by potrace 1.16, written by Peter Selinger 2001-2019
</metadata>
<g transform="translate(0.000000,200.000000) scale(0.013333,-0.013316)"
fill="#000000" stroke="none">
<path d="M7170 14489 c-1486 -64 -2930 -619 -4095 -1574 -334 -273 -695 -634
-970 -970 -1205 -1468 -1754 -3344 -1534 -5240 183 -1584 915 -3067 2063
-4182 499 -484 1065 -891 1681 -1209 791 -407 1620 -649 2540 -740 218 -21
841 -30 1072 -15 960 63 1816 290 2658 706 1568 773 2787 2102 3422 3730 633
1624 627 3476 -17 5095 -307 773 -743 1475 -1296 2090 -156 174 -482 493 -649
636 -1016 868 -2231 1421 -3535 1608 -450 65 -869 85 -1340 65z m605 -149
c714 -33 1313 -147 1975 -375 1112 -383 2139 -1083 2921 -1990 1218 -1412
1802 -3250 1624 -5107 -133 -1392 -692 -2709 -1601 -3773 -158 -186 -463 -497
-649 -663 -1038 -927 -2313 -1507 -3695 -1681 -319 -40 -426 -46 -865 -46
-453 1 -620 12 -985 66 -1169 173 -2249 636 -3195 1369 -457 354 -933 841
-1286 1316 -880 1185 -1343 2589 -1342 4069 1 873 151 1672 468 2490 104 269
304 680 456 940 592 1013 1433 1855 2451 2456 204 121 670 350 888 437 694
277 1373 433 2105 482 296 20 466 22 730 10z"/>
<path d="M7246 13911 c-3 -4 -3 -105 1 -225 l6 -216 44 0 43 0 0 103 c0 57 -3
159 -7 225 l-6 122 -38 0 c-21 0 -40 -4 -43 -9z"/>
<path d="M7430 13695 l0 -225 40 0 40 0 0 136 c0 87 4 134 10 132 6 -2 45 -62
88 -133 l78 -130 46 -3 46 -3 7 216 c5 141 4 220 -2 226 -6 6 -26 9 -44 7
l-34 -3 -5 -145 -5 -145 -88 148 -88 147 -44 0 -45 0 0 -225z"/>
<path d="M7045 13821 l7 -89 -80 -7 c-44 -4 -86 -4 -91 0 -6 3 -11 32 -11 63
0 93 -5 102 -56 102 l-44 0 5 -52 c3 -29 10 -127 15 -217 5 -91 13 -168 18
-173 4 -4 25 -5 45 -1 l38 6 -7 89 c-5 72 -4 92 7 99 8 5 49 9 92 9 l77 0 0
-64 c0 -35 3 -78 6 -95 6 -28 10 -31 45 -31 21 0 40 3 42 8 3 4 -1 97 -9 207
-7 110 -13 208 -14 218 0 14 -9 17 -46 17 l-46 0 7 -89z"/>
<path d="M7910 13900 c0 -5 -7 -105 -16 -221 -8 -116 -14 -212 -12 -214 4 -4
259 -25 305 -25 31 0 33 2 33 34 0 39 11 35 -175 51 -38 3 -70 7 -70 8 -1 1 1
28 3 60 l4 58 114 -7 114 -7 0 35 c0 34 -1 35 -46 42 -26 3 -70 6 -98 6 -28 0
-57 4 -64 9 -19 12 -12 96 8 95 8 -1 64 -4 123 -8 l108 -7 -3 38 -3 38 -100 7
c-55 3 -128 9 -162 12 -37 3 -63 1 -63 -4z"/>
<path d="M6481 13858 c-80 -10 -147 -20 -149 -22 -2 -2 1 -19 6 -37 8 -32 10
-33 48 -30 99 8 86 29 110 -172 12 -98 24 -180 27 -183 3 -3 24 -3 47 1 39 7
42 9 37 34 -13 62 -40 331 -34 337 3 3 30 9 59 13 53 6 53 6 56 44 3 36 2 37
-30 36 -18 -1 -98 -10 -177 -21z"/>
<path d="M8615 13817 c-71 -33 -117 -105 -130 -203 -19 -143 73 -246 219 -245
139 1 216 88 216 246 0 126 -77 204 -207 212 -45 2 -78 -1 -98 -10z m161 -86
c40 -24 58 -77 51 -142 -12 -96 -58 -145 -136 -143 -38 1 -49 6 -78 37 -29 33
-33 43 -33 95 0 68 32 140 70 159 37 18 91 16 126 -6z"/>
<path d="M5826 13740 c-58 -23 -82 -43 -106 -90 -26 -52 -31 -93 -19 -157 15
-78 42 -128 90 -163 100 -72 265 -35 321 73 43 81 21 224 -45 296 -54 59 -152
76 -241 41z m157 -90 c54 -47 75 -157 41 -221 -16 -31 -66 -59 -106 -59 -122
0 -178 236 -70 294 46 25 97 20 135 -14z"/>
<path d="M9027 13623 c-4 -75 -7 -178 -7 -228 l0 -93 42 -10 c23 -6 45 -9 49
-6 4 2 42 65 85 139 43 74 83 135 88 135 5 0 6 -63 2 -159 -7 -178 -8 -177 63
-183 31 -3 33 0 140 192 60 107 106 198 102 203 -4 4 -24 8 -45 10 l-39 2 -66
-127 c-36 -70 -69 -128 -73 -128 -5 0 -5 67 -1 150 l6 149 -24 9 c-13 5 -38
12 -54 16 -30 7 -31 5 -104 -119 -40 -69 -75 -125 -78 -125 -4 0 -3 65 0 145
l7 145 -26 10 c-60 23 -60 22 -67 -127z"/>
<path d="M5400 13616 c-85 -29 -155 -58 -154 -64 5 -62 12 -65 79 -42 32 11
59 20 61 20 1 0 28 -76 59 -170 31 -93 60 -172 65 -175 6 -4 68 12 79 21 1 1
-23 80 -54 174 -32 95 -53 175 -49 180 5 4 33 15 62 25 28 9 52 18 52 19 0 18
-25 66 -33 65 -7 0 -82 -24 -167 -53z"/>
<path d="M9620 13378 c-45 -106 -84 -198 -86 -204 -4 -8 54 -44 70 -44 2 0 27
56 56 125 29 69 56 125 59 125 4 0 17 -72 30 -161 l24 -160 36 -15 c19 -8 40
-13 46 -10 16 6 178 397 168 405 -4 4 -21 13 -36 19 -28 12 -28 12 -61 -60
-18 -40 -43 -99 -56 -131 -12 -32 -26 -55 -30 -50 -6 7 -51 289 -50 316 0 8
-61 37 -79 37 -5 0 -46 -87 -91 -192z"/>
<path d="M6381 12866 c-61 -62 -61 -40 -8 -238 27 -100 31 -128 20 -128 -7 0
-79 16 -159 36 l-146 37 -61 -61 c-58 -58 -59 -61 -36 -66 13 -3 123 -28 243
-55 l219 -50 106 -105 107 -106 49 50 49 50 -106 107 -105 108 -17 75 c-59
269 -90 400 -95 400 -4 0 -31 -24 -60 -54z"/>
<path d="M4875 10190 l-2600 -2600 2600 -2600 c1430 -1430 2603 -2600 2607
-2600 4 0 1178 1169 2608 2597 l2601 2597 -2603 2603 c-1432 1432 -2605 2603
-2608 2603 -3 0 -1175 -1170 -2605 -2600z m5092 -122 l2483 -2483 -2477 -2477
c-1363 -1363 -2482 -2478 -2488 -2478 -6 0 -1126 1116 -2490 2480 l-2480 2480
2480 2480 c1364 1364 2482 2480 2485 2480 3 0 1122 -1117 2487 -2482z"/>
<path d="M4820 8519 c-306 -47 -547 -253 -645 -554 -75 -230 -74 -576 3 -791
47 -133 96 -210 202 -315 83 -83 110 -103 192 -144 137 -66 253 -89 418 -82
77 3 154 13 201 26 192 50 343 170 435 344 43 81 87 208 77 218 -9 9 -322 109
-340 109 -7 0 -17 -19 -24 -42 -36 -136 -123 -251 -226 -304 -53 -26 -67 -29
-168 -29 -100 0 -116 3 -169 28 -155 72 -228 186 -261 407 -29 189 -12 423 41
555 52 130 175 231 312 256 204 39 386 -59 453 -243 17 -44 26 -57 38 -53 9 2
87 22 174 44 87 21 161 42 165 45 3 4 -4 37 -16 74 -74 215 -248 373 -478 433
-92 24 -285 33 -384 18z"/>
<path d="M7590 7575 l0 -915 388 0 c505 0 602 12 767 98 168 88 299 286 352
532 25 119 25 448 0 569 -58 270 -196 468 -391 562 -134 65 -178 69 -677 69
l-439 0 0 -915z m727 605 c138 -12 206 -36 272 -96 119 -107 170 -343 141
-653 -24 -262 -94 -382 -252 -433 -54 -18 -97 -22 -290 -26 l-228 -4 0 611 0
611 123 0 c67 0 172 -5 234 -10z"/>
<path d="M9896 8323 c-430 -1098 -642 -1655 -632 -1659 6 -2 95 -3 196 -2
l184 3 76 205 75 205 365 0 365 0 79 -207 79 -208 200 0 c196 0 199 0 194 20
-3 12 -166 423 -363 915 l-358 895 -197 0 -197 0 -66 -167z m388 -610 c64
-172 116 -317 116 -323 0 -12 -476 -14 -484 -2 -2 4 47 149 110 322 63 173
117 322 120 330 5 13 6 13 14 0 4 -8 60 -155 124 -327z"/>
<path d="M6420 7997 c-219 -66 -365 -211 -442 -442 -20 -61 -23 -89 -23 -225
0 -118 5 -170 18 -220 52 -185 162 -323 317 -398 111 -54 183 -72 305 -79 286
-16 529 123 650 372 54 112 67 187 63 355 -4 125 -8 155 -30 218 -59 166 -176
301 -320 371 -119 58 -179 71 -333 70 -104 0 -145 -4 -205 -22z m350 -293
c118 -64 170 -164 178 -339 7 -170 -25 -279 -104 -359 -60 -60 -125 -86 -214
-86 -88 0 -137 19 -199 76 -90 81 -126 192 -118 364 6 120 28 192 82 263 87
114 250 149 375 81z"/>
<path d="M7399 3377 c-79 -53 -101 -142 -56 -221 54 -95 205 -103 269 -13 33
46 36 125 8 175 -44 78 -151 107 -221 59z m160 -24 c33 -24 61 -79 61 -118 0
-40 -32 -90 -72 -115 -93 -56 -216 21 -205 129 11 107 132 165 216 104z"/>
<path d="M7407 3339 c-60 -47 -57 -161 6 -199 56 -35 131 -18 155 34 16 37 -5
45 -32 12 -53 -66 -136 -31 -136 59 0 56 25 85 73 85 21 0 41 -8 52 -20 19
-21 45 -27 45 -10 0 6 -11 22 -25 35 -32 33 -100 35 -138 4z"/>
<path d="M8472 12447 l-252 -252 48 -48 c26 -26 52 -47 58 -47 5 0 54 45 109
100 55 55 103 100 107 100 4 0 21 -19 38 -42 38 -51 38 -73 3 -256 l-27 -143
61 -61 61 -61 11 41 c32 116 52 242 49 295 -2 31 -3 57 -2 57 2 0 19 -10 39
-21 113 -67 277 21 292 155 10 81 -8 109 -175 279 -86 86 -158 157 -161 157
-4 0 -120 -114 -259 -253z m366 -21 c93 -95 101 -121 56 -175 -21 -25 -34 -31
-64 -31 -35 0 -48 9 -125 82 l-86 81 63 64 c34 34 65 63 68 63 4 0 43 -38 88
-84z"/>
<path d="M5880 12339 c-29 -13 -95 -70 -192 -167 -82 -80 -148 -151 -148 -157
0 -5 112 -123 250 -260 l250 -250 52 53 53 52 -103 103 c-56 56 -102 108 -102
114 0 6 19 25 42 42 52 38 76 39 238 6 68 -14 132 -25 144 -25 13 0 45 23 80
59 l58 59 -118 28 c-76 18 -147 29 -196 29 -43 0 -78 1 -78 2 0 1 9 17 19 35
41 70 36 136 -15 209 -30 44 -111 89 -158 89 -17 0 -51 -10 -76 -21z m111
-158 c21 -22 29 -39 29 -66 0 -32 -10 -46 -84 -123 l-85 -87 -60 60 c-34 33
-61 64 -61 70 0 13 137 148 165 163 34 19 65 13 96 -17z"/>
<path d="M8987 11932 l-257 -257 195 -195 195 -195 42 43 43 42 -145 145 -145
145 65 65 c35 36 69 65 75 65 6 0 64 -54 130 -120 66 -66 124 -120 130 -120 6
0 28 18 50 40 l39 40 -129 130 -129 130 54 55 55 55 135 -135 c74 -74 140
-135 146 -135 5 0 28 18 49 40 l39 40 -189 190 -190 190 -258 -258z"/>
<path d="M5245 11730 l-190 -190 255 -255 255 -255 195 195 195 195 -43 42
-42 43 -143 -143 -143 -143 -67 66 c-37 36 -67 69 -67 73 0 4 56 63 125 132
l125 124 -42 43 -42 43 -126 -125 c-69 -69 -130 -125 -136 -125 -12 0 -104 92
-104 105 0 5 61 71 135 145 l135 136 -43 42 -42 42 -190 -190z"/>
<path d="M9619 11586 c-67 -26 -103 -48 -157 -100 -104 -98 -143 -177 -144
-288 0 -123 79 -240 199 -295 47 -22 65 -25 127 -21 57 4 120 23 144 43 6 5
-58 125 -67 125 -5 0 -25 -7 -44 -15 -142 -59 -274 81 -207 219 47 98 165 199
246 212 56 8 125 -24 159 -74 27 -39 34 -116 15 -152 -8 -15 -2 -23 40 -50 71
-45 80 -44 103 15 48 125 -32 287 -178 363 -61 31 -179 40 -236 18z"/>
<path d="M4943 11428 l-51 -51 124 -249 c68 -136 122 -248 119 -248 -3 0 -116
54 -252 120 l-247 121 -56 -57 c-30 -31 -50 -58 -45 -60 6 -3 161 -76 345
-164 l335 -158 57 55 56 55 -52 112 c-231 490 -272 576 -276 576 -3 0 -28 -23
-57 -52z"/>
<path d="M10125 11068 c-96 -36 -213 -146 -261 -246 -40 -82 -40 -184 0 -265
37 -76 116 -156 191 -193 50 -24 72 -29 135 -29 65 0 85 5 141 32 79 39 179
136 214 207 70 144 45 284 -71 400 -77 76 -131 100 -234 103 -47 1 -98 -3
-115 -9z m229 -158 c44 -26 70 -62 86 -116 18 -62 -6 -134 -68 -204 -101 -113
-218 -145 -305 -83 -117 82 -117 224 1 342 100 100 192 120 286 61z"/>
<path d="M4380 10834 c-130 -47 -239 -176 -256 -301 -18 -143 95 -322 254
-400 49 -24 69 -28 142 -28 69 0 94 4 133 24 74 36 152 114 188 186 27 55 31
75 31 140 0 66 -4 85 -32 142 -41 83 -135 177 -216 217 -74 37 -176 45 -244
20z m163 -145 c57 -29 134 -104 163 -161 28 -54 32 -133 10 -176 -32 -62 -113
-112 -178 -112 -101 1 -248 134 -272 247 -15 70 46 177 119 209 45 20 110 17
158 -7z"/>
<path d="M10584 10354 c-87 -185 -160 -341 -162 -348 -1 -6 22 -35 52 -65 l54
-53 343 162 c189 89 346 164 348 165 6 7 -92 105 -105 105 -8 0 -122 -54 -254
-120 -132 -66 -240 -116 -240 -110 0 6 52 114 115 240 63 126 115 236 115 244
0 13 -90 116 -101 116 -3 0 -77 -151 -165 -336z"/>
<path d="M3822 10293 c-61 -21 -145 -103 -181 -175 -26 -52 -31 -72 -31 -137
0 -104 35 -178 129 -272 94 -94 158 -124 266 -124 60 0 91 6 127 22 109 50
198 176 198 279 0 55 -34 164 -51 164 -5 0 -37 -14 -69 -30 l-60 -30 14 -28
c80 -154 -69 -301 -225 -221 -56 28 -150 124 -177 181 -38 78 -24 148 41 205
50 44 104 53 170 27 11 -4 26 12 51 50 20 31 36 60 36 65 0 16 -92 41 -144 40
-28 0 -70 -7 -94 -16z"/>
<path d="M11020 9905 l-255 -255 190 -190 c104 -104 195 -190 200 -190 6 0 28
17 48 38 l37 38 -140 139 c-77 77 -140 144 -140 150 0 6 29 40 65 75 l65 65
130 -130 130 -130 42 43 43 42 -129 129 -129 129 56 59 56 58 140 -140 141
-139 40 39 c22 21 40 44 40 50 0 10 -360 375 -370 375 -3 0 -120 -115 -260
-255z"/>
<path d="M3325 9788 c-78 -28 -182 -127 -217 -205 -59 -133 33 -273 178 -273
53 0 98 19 229 94 44 25 91 46 106 46 65 0 92 -95 45 -159 -57 -77 -136 -102
-208 -65 -17 9 -34 12 -38 7 -40 -41 -79 -97 -74 -104 3 -5 29 -21 57 -36 109
-55 213 -29 323 81 77 78 103 130 104 209 0 68 -23 120 -74 164 -73 65 -155
68 -267 9 -38 -20 -100 -52 -137 -72 -57 -30 -72 -34 -95 -25 -57 22 -41 101
32 161 45 38 73 44 118 25 l37 -16 48 53 47 53 -26 21 c-48 40 -127 53 -188
32z"/>
<path d="M11497 9432 c-136 -136 -247 -251 -247 -257 0 -5 21 -31 47 -57 l47
-48 108 107 107 107 25 -23 c14 -13 32 -39 41 -58 18 -38 15 -69 -26 -273
l-19 -94 57 -58 c32 -32 60 -58 64 -58 13 0 59 247 59 316 l0 71 47 -23 c57
-30 111 -30 165 -3 112 57 151 175 92 276 -29 51 -290 323 -308 323 -6 0 -122
-111 -259 -248z m355 -19 c42 -43 82 -90 87 -105 27 -72 -63 -144 -127 -102
-38 25 -162 145 -162 158 0 11 110 126 120 126 3 0 40 -35 82 -77z"/>
<path d="M2872 9357 l-52 -52 255 -255 255 -255 52 53 53 52 -255 255 -255
255 -53 -53z"/>
<path d="M12186 9229 c-3 -7 -28 -115 -55 -239 l-51 -225 -105 -105 c-58 -58
-105 -110 -105 -115 0 -5 21 -31 47 -57 l47 -48 111 108 110 109 235 52 c129
29 237 54 239 57 7 7 -102 114 -116 114 -6 0 -78 -18 -160 -39 -81 -22 -149
-38 -151 -36 -2 2 15 74 38 161 l41 158 -60 60 c-42 42 -62 56 -65 45z"/>
<path d="M2639 9087 c-54 -20 -82 -44 -214 -176 l-120 -121 255 -255 255 -255
128 128 c151 150 177 193 177 293 0 56 -5 77 -35 137 -43 84 -144 186 -229
227 -67 33 -162 42 -217 22z m127 -142 c83 -34 207 -170 220 -241 9 -50 -17
-100 -90 -173 l-61 -61 -170 170 -170 170 55 56 c89 90 143 110 216 79z"/>
<path d="M11632 6377 l-202 -203 38 -37 c21 -20 42 -37 47 -37 5 0 42 33 82
72 l73 73 213 -213 212 -212 50 50 50 50 -208 208 c-114 114 -207 212 -207
217 0 5 32 42 72 82 l72 73 -39 40 c-21 22 -42 40 -45 40 -3 0 -96 -91 -208
-203z"/>
<path d="M11253 6000 c-67 -34 -129 -95 -165 -162 -19 -36 -23 -59 -23 -133 0
-79 3 -97 29 -149 39 -79 144 -184 221 -222 51 -25 72 -29 140 -29 102 0 171
31 244 110 62 69 86 133 78 219 -4 60 -32 136 -49 136 -5 0 -35 -13 -68 -30
l-59 -30 19 -42 c33 -73 23 -135 -32 -184 -36 -34 -66 -46 -113 -46 -50 0 -83
16 -147 69 -138 114 -172 234 -91 324 50 56 116 71 185 44 13 -5 25 6 53 49
19 30 35 59 35 65 0 15 -90 41 -145 41 -38 0 -68 -8 -112 -30z"/>
<path d="M3846 5695 c-43 -15 -91 -57 -112 -97 -8 -15 -14 -53 -14 -85 0 -60
10 -83 104 -253 38 -69 43 -95 23 -121 -37 -49 -105 -48 -163 3 -65 57 -84
131 -50 196 l16 30 -49 41 c-27 23 -54 41 -60 41 -6 0 -23 -24 -38 -52 -56
-110 -30 -221 77 -328 125 -125 254 -142 355 -49 89 82 95 168 23 298 -87 157
-101 189 -94 216 15 61 93 50 159 -24 39 -44 49 -91 26 -133 -10 -18 -5 -27
40 -71 49 -50 51 -50 70 -33 11 10 28 41 37 69 14 42 15 58 5 103 -22 98 -130
213 -232 249 -51 18 -73 18 -123 0z"/>
<path d="M10657 5412 l-187 -187 253 -253 c138 -138 257 -252 262 -252 6 0 96
85 200 190 l189 190 -44 45 -44 45 -143 -142 -143 -143 -70 70 -70 70 127 127
128 128 -43 42 -42 43 -128 -128 -127 -127 -58 57 -57 58 137 137 137 138 -39
40 c-21 22 -42 40 -45 40 -3 0 -90 -84 -193 -188z"/>
<path d="M4137 5042 l-257 -257 195 -195 195 -195 42 42 42 43 -144 145 -144
146 64 64 c36 36 69 65 75 65 6 0 64 -54 130 -120 66 -66 124 -120 130 -120 6
0 29 18 50 40 l39 40 -129 130 -130 130 57 57 57 57 141 -139 140 -139 43 42
42 42 -190 190 -190 190 -258 -258z"/>
<path d="M10335 5048 c-32 -9 -70 -41 -188 -157 l-148 -146 256 -255 255 -255
52 53 53 52 -93 93 c-50 51 -92 96 -92 102 0 5 36 46 80 91 88 89 110 130 110
199 0 142 -149 259 -285 223z m108 -176 c53 -50 31 -118 -70 -214 l-39 -38
-72 73 -73 74 70 65 c88 84 127 92 184 40z"/>
<path d="M4617 4562 c-136 -136 -247 -252 -247 -257 0 -6 79 -89 175 -185
l175 -175 42 43 43 42 -123 123 c-67 67 -122 127 -122 132 0 5 93 103 207 217
l208 208 -50 50 c-27 27 -52 50 -55 50 -3 0 -116 -111 -253 -248z"/>
<path d="M9793 4534 c-105 -52 -203 -187 -203 -278 1 -73 62 -152 136 -176 69
-23 119 -7 314 100 62 34 110 38 132 13 41 -47 30 -108 -30 -165 -65 -63 -100
-71 -173 -41 l-41 16 -34 -39 c-61 -70 -61 -69 8 -103 117 -59 233 -29 338 86
72 78 94 125 95 198 0 114 -80 204 -191 213 -66 5 -115 -12 -233 -81 -46 -27
-100 -52 -121 -54 -32 -5 -40 -2 -54 20 -23 35 -12 70 38 122 49 51 83 62 138
44 l39 -13 42 49 c23 27 42 53 42 59 0 5 -20 20 -44 33 -61 32 -131 31 -198
-3z"/>
<path d="M5050 4125 l-255 -255 53 -52 52 -53 110 110 110 110 108 -108 107
-107 43 42 42 43 -107 107 -108 108 63 62 62 63 125 -125 126 -125 41 44 41
43 -174 174 c-96 96 -176 174 -179 174 -3 0 -120 -115 -260 -255z"/>
<path d="M9236 3989 c-102 -100 -186 -188 -186 -193 0 -6 114 -125 253 -264
l252 -252 195 195 195 195 -43 42 -42 43 -143 -143 -142 -142 -70 70 -70 70
128 128 127 128 -43 42 -43 42 -124 -125 c-69 -69 -128 -125 -133 -125 -9 0
-107 100 -107 109 0 3 59 65 130 136 72 71 130 134 130 140 0 6 -18 28 -39 49
l-39 38 -186 -183z"/>
<path d="M8846 3580 c-53 -34 -316 -287 -316 -304 0 -6 114 -125 253 -264
l252 -252 53 53 52 52 -105 105 c-58 58 -105 108 -105 111 0 4 18 22 41 40 51
40 75 40 263 4 l139 -27 58 58 c32 32 55 61 51 65 -16 16 -246 59 -311 59
l-71 0 20 32 c104 171 -105 375 -274 268z m130 -135 c31 -21 47 -66 35 -98 -6
-15 -45 -63 -88 -107 l-77 -81 -65 66 -66 66 86 84 c74 73 91 85 120 85 19 0
44 -7 55 -15z"/>
<path d="M5378 1674 c-52 -28 -74 -109 -43 -164 7 -14 44 -50 82 -81 69 -56
86 -87 63 -115 -16 -18 -73 -18 -109 0 -29 16 -51 53 -51 90 0 19 -8 26 -40
34 l-40 10 -6 -33 c-13 -72 31 -136 120 -175 99 -44 183 -22 218 57 34 78 9
123 -125 226 -25 19 -37 36 -37 53 0 30 19 38 63 30 47 -9 68 -27 76 -66 5
-27 13 -36 44 -46 46 -16 53 -6 44 59 -4 32 -14 49 -42 74 -65 56 -162 78
-217 47z"/>
<path d="M9258 1602 c-97 -33 -138 -51 -138 -62 0 -32 132 -410 143 -410 7 0
77 22 157 50 l145 49 -2 31 c0 17 -3 34 -6 37 -3 2 -55 -12 -116 -31 -61 -20
-114 -36 -119 -36 -11 0 -43 103 -34 111 4 4 51 21 105 39 53 17 97 33 97 34
0 13 -24 66 -29 66 -4 0 -47 -13 -96 -30 -49 -16 -94 -30 -101 -30 -14 0 -38
64 -31 83 2 7 52 28 111 47 58 18 106 37 106 41 0 25 -22 59 -37 58 -10 0 -80
-22 -155 -47z"/>
<path d="M5716 1582 c-7 -12 -117 -424 -114 -427 2 -1 74 -22 162 -45 168 -45
175 -45 176 7 0 24 -6 26 -148 64 l-84 23 7 34 c10 54 24 84 38 80 42 -16 197
-51 201 -47 3 3 8 19 12 35 l6 30 -101 28 c-56 16 -103 32 -106 36 -4 6 13 80
20 88 1 1 53 -11 115 -28 61 -17 114 -30 116 -27 3 2 9 18 14 36 10 35 28 27
-190 86 -52 14 -100 28 -107 30 -7 2 -14 1 -17 -3z"/>
<path d="M9015 1531 c-16 -3 -31 -13 -33 -22 -1 -8 11 -77 28 -152 16 -75 30
-146 30 -157 0 -34 -44 -70 -85 -70 -71 0 -81 14 -115 175 -40 188 -36 177
-78 169 -20 -3 -40 -9 -43 -13 -8 -7 54 -284 75 -334 20 -49 68 -77 131 -77
72 0 122 17 162 54 51 46 52 92 10 280 -18 82 -37 150 -42 152 -6 1 -23 -1
-40 -5z"/>
<path d="M6086 1463 c-7 -23 -76 -396 -76 -409 0 -10 298 -69 306 -61 2 2 7
17 10 34 7 36 10 34 -121 59 -49 9 -91 17 -92 18 -2 1 12 82 31 180 l33 178
-24 9 c-37 14 -61 11 -67 -8z"/>
<path d="M6435 1407 c-8 -36 -56 -419 -53 -422 2 -1 22 -5 44 -9 l42 -6 6 43
c3 23 9 66 12 95 7 54 7 54 38 48 17 -3 58 -8 92 -12 l61 -6 7 32 c3 18 4 35
2 37 -3 3 -44 10 -93 16 l-88 12 3 45 c2 25 7 48 11 53 4 4 52 1 107 -6 72
-10 101 -11 106 -3 11 16 10 66 -2 66 -11 0 -224 28 -262 35 -22 4 -29 0 -33
-18z"/>
<path d="M8390 1413 c-46 -7 -85 -15 -86 -16 -2 -1 11 -100 28 -220 l32 -218
40 3 c46 3 45 -1 35 133 l-4 60 34 3 c32 3 41 -3 111 -77 79 -85 93 -91 159
-72 23 6 22 8 -33 73 -32 37 -71 76 -88 86 -29 19 -30 20 -10 26 12 4 33 21
47 37 19 24 25 42 25 81 0 44 -4 54 -34 84 -32 32 -37 34 -102 33 -38 -1 -107
-8 -154 -16z m188 -76 c6 -5 12 -22 12 -38 0 -38 -30 -56 -107 -65 -60 -6 -62
-6 -67 17 -3 13 -7 36 -11 52 -6 32 0 36 78 46 54 7 73 5 95 -12z"/>
<path d="M8038 1377 l-118 -9 0 -39 0 -39 68 2 67 3 14 -182 14 -183 45 0 45
0 -7 93 c-3 50 -9 135 -12 188 l-7 96 63 6 c35 4 65 9 67 10 2 2 0 18 -3 35
-6 32 -7 32 -63 30 -31 0 -109 -5 -173 -11z"/>
<path d="M6956 1289 c-3 -41 -7 -141 -8 -224 l-3 -150 142 -3 c111 -2 149 1
172 12 32 17 61 70 61 111 0 34 -28 83 -52 91 -24 7 -23 21 2 34 31 17 45 79
27 122 -24 57 -60 70 -208 76 l-127 5 -6 -74z m242 -25 c26 -18 28 -46 6 -68
-11 -12 -36 -16 -90 -16 l-74 0 0 50 0 50 68 0 c45 0 75 -5 90 -16z m4 -178
c33 -15 29 -86 -7 -100 -27 -10 -153 -7 -160 4 -4 6 -3 34 0 63 l7 52 71 -6
c40 -3 79 -9 89 -13z"/>
<path d="M7390 1125 l0 -225 170 0 170 0 0 40 0 40 -125 0 -126 0 3 58 3 57
110 5 110 5 0 34 0 33 -110 2 -110 1 -3 48 -3 47 120 0 121 0 0 40 0 40 -165
0 -165 0 0 -225z"/>
</g>
</svg>
